<?xml version="1.0" encoding="UTF-8" standalone="no"?>
<!-- Created with Inkscape (http://www.inkscape.org/) -->

<svg
   version="1.1"
   id="svg1"
   width="2048"
   height="2048"
   viewBox="0 0 2048 2048"
   sodipodi:docname="gobcam.svg"
   inkscape:version="1.4.3 (0d15f75042, 2025-12-25)"
   xmlns:inkscape="http://www.inkscape.org/namespaces/inkscape"
   xmlns:sodipodi="http://sodipodi.sourceforge.net/DTD/sodipodi-0.dtd"
   xmlns="http://www.w3.org/2000/svg"
   xmlns:svg="http://www.w3.org/2000/svg">
  <defs
     id="defs1" />
  <sodipodi:namedview
     id="namedview1"
     pagecolor="#ffffff"
     bordercolor="#000000"
     borderopacity="0.25"
     inkscape:showpageshadow="2"
     inkscape:pageopacity="0.0"
     inkscape:pagecheckerboard="true"
     inkscape:deskcolor="#d1d1d1"
     inkscape:zoom="0.27889863"
     inkscape:cx="204.37533"
     inkscape:cy="1206.5316"
     inkscape:window-width="2556"
     inkscape:window-height="1400"
     inkscape:window-x="0"
     inkscape:window-y="18"
     inkscape:window-maximized="1"
     inkscape:current-layer="g1" />
  <g
     inkscape:groupmode="layer"
     inkscape:label="Image"
     id="g1"
     transform="matrix(1.2952563,0,0,1.2952563,-59.059414,-59.896518)">
    <g
       id="g2">
      <path
         style="fill:#d2db8a"
         d="m 512.2614,1378.8108 c -8.09172,-2.803 -13.66247,-7.5935 -18.63042,-16.0213 -2.75681,-4.6767 -3.58142,-8.1057 -4.0371,-16.7876 -1.20746,-23.005 7.91767,-45.3406 30.22209,-73.9747 20.41615,-26.2099 34.13101,-38.7968 51.51736,-47.2803 16.14076,-7.8757 25.83517,-10.0866 48.30949,-11.0175 l 18.97616,-0.786 0.63632,-4.1383 c 0.34997,-2.2762 0.99201,-8.0384 1.42674,-12.8051 l 0.79043,-8.6667 -13.06957,-6.4716 c -57.05333,-28.2513 -114.46631,-74.1119 -153.30062,-122.4542 -36.96077,-46.0102 -60.955,-89.42518 -79.75616,-144.31037 l -6.81781,-19.90288 -13.93082,-5.70638 C 321.48637,866.73235 262.54553,824.74833 226.5011,782.99767 199.44522,751.65854 180.6298,722.72542 159.9545,680.66667 140.56616,641.2259 129.50029,612.38031 113.30393,559.06185 97.949194,508.51401 73.77693,408.32715 65.313774,360.15691 61.470813,338.2837 74.99373,321.23783 94.766856,323.0308 c 6.880794,0.62392 11.766984,2.80651 38.884744,17.3692 37.6689,20.22882 63.5869,33.20743 105.68173,52.92082 99.43138,46.56462 134.05049,68.08255 175.3187,108.97147 11.35861,11.25422 20.85804,19.84416 21.10985,19.08875 0.8986,-2.6958 19.79583,-31.59095 27.07355,-41.3973 C 507.28779,420.08649 562.79199,373.81787 630,340.63439 c 49.08977,-24.23774 92.74794,-37.47213 150.32646,-45.56948 23.88977,-3.35966 88.13365,-3.33234 113.00687,0.048 74.89906,10.17912 136.86147,33.2156 197.99997,73.61282 55.6644,36.78011 101.1721,83.16765 137.5088,140.16709 l 8.8011,13.80594 13.9335,-14.64387 c 40.3336,-42.3898 74.6457,-64.34129 173.09,-110.73604 44.7341,-21.08228 96.1687,-46.64603 115.3333,-57.32237 23.2603,-12.95801 33.3561,-17.33228 39.9295,-17.30057 12.1108,0.0584 23.7384,8.85129 26.8268,20.28654 2.3094,8.55114 0.8285,18.4422 -10.2336,68.35084 -28.6903,129.44167 -53.2606,208.24852 -84.4923,271.00152 -24.9201,50.0712 -49.7589,85.14692 -85.2233,120.34694 -28.2709,28.0601 -54.8925,47.85362 -92.4473,68.73574 -10.8511,6.03367 -26.1711,13.52396 -34.0445,16.64508 -7.8734,3.12113 -14.7871,6.0857 -15.3638,6.58794 -0.5767,0.50225 -4.0697,9.82307 -7.7623,20.71294 -13.369,39.42708 -29.2608,71.45401 -53.9054,108.63655 -18.7296,28.2582 -33.5017,46.3026 -57.9062,70.7332 -35.9304,35.969 -70.4389,61.0252 -116.6628,84.7076 l -15.952,8.1728 0.4098,11.8553 c 0.2253,6.5204 0.6348,12.2195 0.91,12.6647 0.2751,0.4452 9.3691,1.1575 20.2088,1.583 35.9334,1.4106 54.5432,9.7413 79.958,35.7936 25.4604,26.0991 42.8718,54.951 47.9343,79.4304 4.7724,23.0769 -1.33,40.0923 -17.517,48.8429 l -5.3334,2.8832 -319.99997,0.2968 c -307.52347,0.2854 -320.27573,0.2014 -327.07193,-2.1527 z"
         id="path6" />
      <path
         style="fill:#c5de0a"
         d="m 512.2614,1378.8108 c -8.09172,-2.803 -13.66247,-7.5935 -18.63042,-16.0213 -2.75681,-4.6767 -3.58142,-8.1057 -4.0371,-16.7876 -1.20746,-23.005 7.91767,-45.3406 30.22209,-73.9747 20.41615,-26.2099 34.13101,-38.7968 51.51736,-47.2803 16.14076,-7.8757 25.83517,-10.0866 48.30949,-11.0175 l 18.97616,-0.786 0.63632,-4.1383 c 0.34997,-2.2762 0.99201,-8.0384 1.42674,-12.8051 l 0.79043,-8.6667 -13.06957,-6.4716 c -57.05333,-28.2513 -114.46631,-74.1119 -153.30062,-122.4542 -36.96077,-46.0102 -60.955,-89.42518 -79.75616,-144.31037 l -6.81781,-19.90288 -13.93082,-5.70638 C 321.48637,866.73235 262.54553,824.74833 226.5011,782.99767 199.44522,751.65854 180.6298,722.72542 159.9545,680.66667 140.56616,641.2259 129.50029,612.38031 113.30393,559.06185 97.949194,508.51401 73.77693,408.32715 65.313774,360.15691 61.470813,338.2837 74.99373,321.23783 94.766856,323.0308 c 6.880794,0.62392 11.766984,2.80651 38.884744,17.3692 37.6689,20.22882 63.5869,33.20743 105.68173,52.92082 99.43138,46.56462 134.05049,68.08255 175.3187,108.97147 11.35861,11.25422 20.85804,19.84416 21.10985,19.08875 0.8986,-2.6958 19.79583,-31.59095 27.07355,-41.3973 C 507.28779,420.08649 562.79199,373.81787 630,340.63439 c 49.08977,-24.23774 92.74794,-37.47213 150.32646,-45.56948 23.88977,-3.35966 88.13365,-3.33234 113.00687,0.048 74.89906,10.17912 136.86147,33.2156 197.99997,73.61282 55.6644,36.78011 101.1721,83.16765 137.5088,140.16709 l 8.8011,13.80594 13.9335,-14.64387 c 40.3336,-42.3898 74.6457,-64.34129 173.09,-110.73604 44.7341,-21.08228 96.1687,-46.64603 115.3333,-57.32237 23.2603,-12.95801 33.3561,-17.33228 39.9295,-17.30057 12.1108,0.0584 23.7384,8.85129 26.8268,20.28654 2.3094,8.55114 0.8285,18.4422 -10.2336,68.35084 -28.6903,129.44167 -53.2606,208.24852 -84.4923,271.00152 -24.9201,50.0712 -49.7589,85.14692 -85.2233,120.34694 -28.2709,28.0601 -54.8925,47.85362 -92.4473,68.73574 -10.8511,6.03367 -26.1711,13.52396 -34.0445,16.64508 -7.8734,3.12113 -14.7871,6.0857 -15.3638,6.58794 -0.5767,0.50225 -4.0697,9.82307 -7.7623,20.71294 -13.369,39.42708 -29.2608,71.45401 -53.9054,108.63655 -18.7296,28.2582 -33.5017,46.3026 -57.9062,70.7332 -35.9304,35.969 -70.4389,61.0252 -116.6628,84.7076 l -15.952,8.1728 0.4098,11.8553 c 0.2253,6.5204 0.6348,12.2195 0.91,12.6647 0.2751,0.4452 9.3691,1.1575 20.2088,1.583 35.9334,1.4106 54.5432,9.7413 79.958,35.7936 25.4604,26.0991 42.8718,54.951 47.9343,79.4304 4.7724,23.0769 -1.33,40.0923 -17.517,48.8429 l -5.3334,2.8832 -319.99997,0.2968 c -307.52347,0.2854 -320.27573,0.2014 -327.07193,-2.1527 z m 358.00364,-411.518 c 101.07534,-13.10764 236.08586,-97.96284 306.98716,-192.94391 6.8418,-9.16545 6.7296,-10.17878 -2.5289,-22.83639 -27.342,-37.38044 -74.7073,-82.49257 -117.39,-111.80578 -55.2718,-37.95903 -115.85818,-63.70519 -171.99997,-73.09127 -21.29214,-3.55974 -56.78461,-4.80991 -78,-2.74743 -83.76524,8.14333 -181.99931,57.48397 -256.35117,128.75911 -28.3444,27.1715 -60.34067,65.74282 -60.29188,72.68152 0.0589,8.37203 49.55473,61.99768 81.97639,88.81626 71.84963,59.43266 157.18703,101.94814 226,112.59421 19.49613,3.01625 50.82741,3.26729 71.59837,0.57368 z m -67.09905,-19.92469 c -24.5177,-4.45045 -51.29712,-15.6068 -72.9588,-30.39475 C 716.2608,907.45247 695.66664,887.6392 685.54014,874 c -9.18067,-12.36528 -23.30688,-41.04554 -27.58231,-56 -9.99361,-34.95536 -9.41703,-73.76647 1.60446,-108 14.7912,-45.94254 49.4056,-86.40179 92.38845,-107.9888 42.42975,-21.30924 94.99011,-25.03479 140.36002,-9.94891 27.10153,9.01148 49.39003,22.90762 70.41357,43.90053 27.04924,27.00982 43.93677,59.01001 51.38547,97.37051 3.5831,18.45241 3.3192,51.9057 -0.5531,70.13875 -5.8165,27.38732 -17.15631,53.3036 -32.10512,73.37412 -16.40917,22.03124 -44.22687,44.6712 -68.45197,55.71093 -13.49911,6.15175 -33.28696,12.34764 -47.16249,14.76733 -14.12925,2.46393 -49.20311,2.48836 -62.67113,0.0436 z M 372.0775,726 l 1.56556,-22.66667 -3.56223,-12.66666 c -8.70388,-30.94953 -18.576,-53.22815 -33.36086,-75.28618 -20.60829,-30.7462 -48.3126,-54.89063 -91.38664,-79.64387 -22.05394,-12.67368 -54.66666,-29.33264 -54.66666,-27.92438 0,4.07302 14.46902,61.74455 19.78353,78.85443 13.93894,44.87591 32.32918,84.02426 49.16798,104.66666 12.08386,14.81341 43.00072,42.15198 93.71515,82.86868 L 370,787.58304 370.25598,768.12486 C 370.39676,757.42285 371.21645,738.46667 372.0775,726 Z M 1316,777.47529 c 17.1862,-13.26387 45.7605,-36.54214 60.5839,-49.35516 43.6248,-37.70839 59.6422,-63.02411 81.4838,-128.7868 6.624,-19.94403 18.9832,-66.09661 24.0518,-89.81623 0.6144,-2.87518 -0.9877,-2.27998 -18.3899,6.83197 -69.068,36.1647 -101.5606,61.54901 -127.7736,99.82103 -14.6437,21.38028 -25.4502,45.8087 -33.4383,75.58814 -4.0201,14.98648 -4.037,15.19539 -2.4337,30 0.8881,8.19964 1.6473,26.42289 1.6871,40.49612 0.05,17.60621 0.5127,25.33503 1.484,24.7777 0.7764,-0.4455 6.5116,-4.74604 12.7449,-9.55677 z"
         id="path5" />
      <path
         style="fill:#50622e"
         d="m 512.2614,1378.8108 c -8.09172,-2.803 -13.66247,-7.5935 -18.63042,-16.0213 -2.75681,-4.6767 -3.58142,-8.1057 -4.0371,-16.7876 -1.20746,-23.005 7.91767,-45.3406 30.22209,-73.9747 20.41615,-26.2099 34.13101,-38.7968 51.51736,-47.2803 16.14076,-7.8757 25.83517,-10.0866 48.30949,-11.0175 l 18.97616,-0.786 0.63632,-4.1383 c 0.34997,-2.2762 0.99201,-8.0384 1.42674,-12.8051 l 0.79043,-8.6667 -13.06957,-6.4716 c -57.05333,-28.2513 -114.46631,-74.1119 -153.30062,-122.4542 -36.96077,-46.0102 -60.955,-89.42518 -79.75616,-144.31037 l -6.81781,-19.90288 -13.93082,-5.70638 C 321.48637,866.73235 262.54553,824.74833 226.5011,782.99767 199.44522,751.65854 180.6298,722.72542 159.9545,680.66667 140.56616,641.2259 129.50029,612.38031 113.30393,559.06185 97.949194,508.51401 73.77693,408.32715 65.313774,360.15691 61.470813,338.2837 74.99373,321.23783 94.766856,323.0308 c 6.880794,0.62392 11.766984,2.80651 38.884744,17.3692 37.6689,20.22882 63.5869,33.20743 105.68173,52.92082 99.43138,46.56462 134.05049,68.08255 175.3187,108.97147 11.35861,11.25422 20.85804,19.84416 21.10985,19.08875 0.8986,-2.6958 19.79583,-31.59095 27.07355,-41.3973 C 507.28779,420.08649 562.79199,373.81787 630,340.63439 c 49.08977,-24.23774 92.74794,-37.47213 150.32646,-45.56948 23.88977,-3.35966 88.13365,-3.33234 113.00687,0.048 74.89906,10.17912 136.86147,33.2156 197.99997,73.61282 55.6644,36.78011 101.1721,83.16765 137.5088,140.16709 l 8.8011,13.80594 13.9335,-14.64387 c 40.3336,-42.3898 74.6457,-64.34129 173.09,-110.73604 44.7341,-21.08228 96.1687,-46.64603 115.3333,-57.32237 23.2603,-12.95801 33.3561,-17.33228 39.9295,-17.30057 12.1108,0.0584 23.7384,8.85129 26.8268,20.28654 2.3094,8.55114 0.8285,18.4422 -10.2336,68.35084 -28.6903,129.44167 -53.2606,208.24852 -84.4923,271.00152 -24.9201,50.0712 -49.7589,85.14692 -85.2233,120.34694 -28.2709,28.0601 -54.8925,47.85362 -92.4473,68.73574 -10.8511,6.03367 -26.1711,13.52396 -34.0445,16.64508 -7.8734,3.12113 -14.7871,6.0857 -15.3638,6.58794 -0.5767,0.50225 -4.0697,9.82307 -7.7623,20.71294 -13.369,39.42708 -29.2608,71.45401 -53.9054,108.63655 -18.7296,28.2582 -33.5017,46.3026 -57.9062,70.7332 -35.9304,35.969 -70.4389,61.0252 -116.6628,84.7076 l -15.952,8.1728 0.4098,11.8553 c 0.2253,6.5204 0.6348,12.2195 0.91,12.6647 0.2751,0.4452 9.3691,1.1575 20.2088,1.583 35.9334,1.4106 54.5432,9.7413 79.958,35.7936 25.4604,26.0991 42.8718,54.951 47.9343,79.4304 4.7724,23.0769 -1.33,40.0923 -17.517,48.8429 l -5.3334,2.8832 -319.99997,0.2968 c -307.52347,0.2854 -320.27573,0.2014 -327.07193,-2.1527 z m 337.07193,-253.5822 c 17.62387,-7.9684 25.91855,-28.63 19.29613,-48.0658 -5.82179,-17.086 -25.78455,-27.3822 -43.53254,-22.4528 -15.24924,4.2354 -26.43025,19.1926 -26.43025,35.3565 0,16.2201 7.77836,29.0415 21.33333,35.1646 8.11609,3.6662 21.22163,3.6651 29.33333,0 z m 20.93171,-157.9358 c 101.07534,-13.10764 236.08586,-97.96284 306.98716,-192.94391 6.8418,-9.16545 6.7296,-10.17878 -2.5289,-22.83639 -27.342,-37.38044 -74.7073,-82.49257 -117.39,-111.80578 -55.2718,-37.95903 -115.85818,-63.70519 -171.99997,-73.09127 -21.29214,-3.55974 -56.78461,-4.80991 -78,-2.74743 -83.76524,8.14333 -181.99931,57.48397 -256.35117,128.75911 -28.3444,27.1715 -60.34067,65.74282 -60.29188,72.68152 0.0589,8.37203 49.55473,61.99768 81.97639,88.81626 71.84963,59.43266 157.18703,101.94814 226,112.59421 19.49613,3.01625 50.82741,3.26729 71.59837,0.57368 z m -67.09905,-19.92469 c -24.5177,-4.45045 -51.29712,-15.6068 -72.9588,-30.39475 C 716.2608,907.45247 695.66664,887.6392 685.54014,874 c -9.18067,-12.36528 -23.30688,-41.04554 -27.58231,-56 -9.99361,-34.95536 -9.41703,-73.76647 1.60446,-108 14.7912,-45.94254 49.4056,-86.40179 92.38845,-107.9888 42.42975,-21.30924 94.99011,-25.03479 140.36002,-9.94891 27.10153,9.01148 49.39003,22.90762 70.41357,43.90053 27.04924,27.00982 43.93677,59.01001 51.38547,97.37051 3.5831,18.45241 3.3192,51.9057 -0.5531,70.13875 -5.8165,27.38732 -17.15631,53.3036 -32.10512,73.37412 -16.40917,22.03124 -44.22687,44.6712 -68.45197,55.71093 -13.49911,6.15175 -33.28696,12.34764 -47.16249,14.76733 -14.12925,2.46393 -49.20311,2.48836 -62.67113,0.0436 z M 372.0775,726 l 1.56556,-22.66667 -3.56223,-12.66666 c -8.70388,-30.94953 -18.576,-53.22815 -33.36086,-75.28618 -20.60829,-30.7462 -48.3126,-54.89063 -91.38664,-79.64387 -22.05394,-12.67368 -54.66666,-29.33264 -54.66666,-27.92438 0,4.07302 14.46902,61.74455 19.78353,78.85443 13.93894,44.87591 32.32918,84.02426 49.16798,104.66666 12.08386,14.81341 43.00072,42.15198 93.71515,82.86868 L 370,787.58304 370.25598,768.12486 C 370.39676,757.42285 371.21645,738.46667 372.0775,726 Z M 1316,777.47529 c 17.1862,-13.26387 45.7605,-36.54214 60.5839,-49.35516 43.6248,-37.70839 59.6422,-63.02411 81.4838,-128.7868 6.624,-19.94403 18.9832,-66.09661 24.0518,-89.81623 0.6144,-2.87518 -0.9877,-2.27998 -18.3899,6.83197 -69.068,36.1647 -101.5606,61.54901 -127.7736,99.82103 -14.6437,21.38028 -25.4502,45.8087 -33.4383,75.58814 -4.0201,14.98648 -4.037,15.19539 -2.4337,30 0.8881,8.19964 1.6473,26.42289 1.6871,40.49612 0.05,17.60621 0.5127,25.33503 1.484,24.7777 0.7764,-0.4455 6.5116,-4.74604 12.7449,-9.55677 z"
         id="path4" />
      <path
         style="fill:#3e3f3b"
         d="m 512.2614,1378.8108 c -8.09172,-2.803 -13.66247,-7.5935 -18.63042,-16.0213 -2.75681,-4.6767 -3.58142,-8.1057 -4.0371,-16.7876 -1.20746,-23.005 7.91767,-45.3406 30.22209,-73.9747 20.41615,-26.2099 34.13101,-38.7968 51.51736,-47.2803 16.14076,-7.8757 25.83517,-10.0866 48.30949,-11.0175 l 18.97616,-0.786 0.63632,-4.1383 c 0.34997,-2.2762 0.99201,-8.0384 1.42674,-12.8051 l 0.79043,-8.6667 -13.06957,-6.4716 c -57.05333,-28.2513 -114.46631,-74.1119 -153.30062,-122.4542 -36.96077,-46.0102 -60.955,-89.42518 -79.75616,-144.31037 l -6.81781,-19.90288 -13.93082,-5.70638 C 321.48637,866.73235 262.54553,824.74833 226.5011,782.99767 199.44522,751.65854 180.6298,722.72542 159.9545,680.66667 140.56616,641.2259 129.50029,612.38031 113.30393,559.06185 97.949194,508.51401 73.77693,408.32715 65.313774,360.15691 61.470813,338.2837 74.99373,321.23783 94.766856,323.0308 c 6.880794,0.62392 11.766984,2.80651 38.884744,17.3692 37.6689,20.22882 63.5869,33.20743 105.68173,52.92082 99.43138,46.56462 134.05049,68.08255 175.3187,108.97147 11.35861,11.25422 20.85804,19.84416 21.10985,19.08875 0.8986,-2.6958 19.79583,-31.59095 27.07355,-41.3973 C 507.28779,420.08649 562.79199,373.81787 630,340.63439 c 49.08977,-24.23774 92.74794,-37.47213 150.32646,-45.56948 23.88977,-3.35966 88.13365,-3.33234 113.00687,0.048 74.89906,10.17912 136.86147,33.2156 197.99997,73.61282 55.6644,36.78011 101.1721,83.16765 137.5088,140.16709 l 8.8011,13.80594 13.9335,-14.64387 c 40.3336,-42.3898 74.6457,-64.34129 173.09,-110.73604 44.7341,-21.08228 96.1687,-46.64603 115.3333,-57.32237 23.2603,-12.95801 33.3561,-17.33228 39.9295,-17.30057 12.1108,0.0584 23.7384,8.85129 26.8268,20.28654 2.3094,8.55114 0.8285,18.4422 -10.2336,68.35084 -28.6903,129.44167 -53.2606,208.24852 -84.4923,271.00152 -24.9201,50.0712 -49.7589,85.14692 -85.2233,120.34694 -28.2709,28.0601 -54.8925,47.85362 -92.4473,68.73574 -10.8511,6.03367 -26.1711,13.52396 -34.0445,16.64508 -7.8734,3.12113 -14.7871,6.0857 -15.3638,6.58794 -0.5767,0.50225 -4.0697,9.82307 -7.7623,20.71294 -13.369,39.42708 -29.2608,71.45401 -53.9054,108.63655 -18.7296,28.2582 -33.5017,46.3026 -57.9062,70.7332 -35.9304,35.969 -70.4389,61.0252 -116.6628,84.7076 l -15.952,8.1728 0.4098,11.8553 c 0.2253,6.5204 0.6348,12.2195 0.91,12.6647 0.2751,0.4452 9.3691,1.1575 20.2088,1.583 35.9334,1.4106 54.5432,9.7413 79.958,35.7936 25.4604,26.0991 42.8718,54.951 47.9343,79.4304 4.7724,23.0769 -1.33,40.0923 -17.517,48.8429 l -5.3334,2.8832 -319.99997,0.2968 c -307.52347,0.2854 -320.27573,0.2014 -327.07193,-2.1527 z m 339.05236,-253.6105 c 12.86651,-6.4258 19.96441,-18.7035 19.96441,-34.5336 0,-11.7443 -3.02656,-19.6595 -10.2974,-26.9304 -10.07636,-10.0763 -23.28205,-13.286 -37.64744,-9.1503 -8.85937,2.5505 -20.3564,13.9185 -23.67984,23.414 -11.21411,32.0402 21.73572,62.1454 51.66027,47.2003 z m 24.01957,-157.88752 c 31.04816,-4.63132 67.11338,-16.70054 105.70072,-35.37275 61.85765,-29.93259 112.94945,-66.67244 159.63265,-114.79112 17.4468,-17.98334 37.5814,-41.89358 41.2465,-48.98111 1.8678,-3.61183 1.7521,-4.17351 -2.1159,-10.27275 -8.7318,-13.76857 -25.335,-32.92385 -49.7196,-57.36178 -43.3688,-43.46385 -85.1538,-73.7124 -136.0777,-98.50788 -98.44025,-47.93183 -187.03393,-52.56332 -281.33333,-14.7075 -82.37788,33.07001 -156.0564,88.645 -211.03989,159.18531 -6.07193,7.78991 -11.38873,15.52047 -11.81511,17.17902 -2.5641,9.974 59.88301,74.52861 105.60458,109.16857 45.32605,34.34031 101.057,64.44948 150.58375,81.35427 24.58117,8.39021 42.45348,12.24987 72.66667,15.6929 8.69731,0.99113 43.26273,-0.58577 56.66666,-2.58518 z m -62,-18.86169 c -9.95589,-1.34906 -27.99996,-5.8577 -39.40284,-9.84552 C 722.47097,920.60912 680.27579,878.89426 662.05134,828 c -30.96328,-86.46918 7.57501,-183.65321 89.19018,-224.91558 30.23163,-15.28427 65.66861,-22.10769 98.80175,-19.02434 80.6804,7.50806 143.59259,63.02633 162.18623,143.12488 4.0056,17.25534 4.8954,50.51473 1.8403,68.78558 -3.2729,19.57339 -7.9917,34.76865 -16.00831,51.54908 -15.10928,31.62702 -36.06372,55.01611 -66.72816,74.48116 -16.02492,10.17223 -36.40575,18.2998 -58.66666,23.39537 -11.88578,2.72068 -48.05626,4.58301 -59.33334,3.05494 z m 16.51818,-22.78442 c 1.07514,-3.48334 4.91374,-14.43334 8.53021,-24.33334 9.16725,-25.09511 23.23285,-66.82987 22.70211,-67.36061 -0.65609,-0.65609 -181.38685,-10.11414 -181.97769,-9.5233 -0.87299,0.87298 4.81169,13.0828 11.58551,24.88391 21.13032,36.81252 55.36513,63.86008 96.20989,76.01162 15.69363,4.66894 24.11433,6.27637 34.04681,6.49918 L 827.89669,932 Z m 45.87913,1.51849 c 46.53439,-11.382 84.7106,-42.17817 106.40283,-85.83352 4.81692,-9.69401 16.03073,-42.35725 14.90021,-43.40086 -0.20186,-0.18634 -5.46701,-3.01645 -11.70035,-6.28914 C 979.1,788.38896 965.3,781.04098 954.66667,775.33282 944.03333,769.62465 929.83378,762.01999 923.11211,758.43358 l -12.22123,-6.52075 -2.89154,7.71025 c -1.59034,4.24064 -12.17722,33.81025 -23.52641,65.71025 -11.34918,31.9 -24.49844,68.67949 -29.22057,81.7322 -4.72213,13.0527 -8.58569,24.07184 -8.58569,24.48696 0,1.33333 14.92881,-0.90997 29.06397,-4.36733 z M 774.29344,809 c -0.37625,-1.65 -6.17831,-18.9 -12.89345,-38.33333 -6.71515,-19.43334 -18.84434,-55.13334 -26.95376,-79.33334 -8.10942,-24.2 -14.97968,-44.25236 -15.26724,-44.56081 -1.03072,-1.10558 -7.62647,6.1155 -17.36182,19.00787 -14.44072,19.12364 -24.48941,41.18543 -30.76896,67.55294 -2.98737,12.54383 -3.12914,52.13661 -0.23155,64.66667 l 1.85001,8 40,2.26829 c 22,1.24755 44.5,2.47681 50,2.73167 5.5,0.25486 10.51994,0.58414 11.15543,0.73171 0.63549,0.14758 0.84759,-1.08167 0.47134,-2.73167 z m 224.88838,-38.95592 c 1.70048,-16.59774 -3.95344,-47.27173 -12.49532,-67.79025 -4.86383,-11.68345 -14.79548,-28.69227 -22.84948,-39.13176 -6.55561,-8.49728 -27.38602,-28.57008 -34.60823,-33.34952 -6.17818,-4.08852 -0.24166,-8.29996 -47.04365,33.37333 l -35.72768,31.81255 7.1046,4.27408 c 3.90753,2.35075 29.30461,16.49843 56.43794,31.4393 27.13333,14.94087 57.73333,31.84104 68,37.55594 10.26667,5.71491 19.03381,10.40157 19.48254,10.41482 0.44873,0.0133 1.21341,-3.85607 1.69928,-8.59849 z M 816.66667,695.82793 c 25.66666,-22.08251 56.52343,-48.90612 68.57058,-59.60801 l 21.90392,-19.458 -7.90392,-3.66357 c -4.34715,-2.01496 -15.10392,-5.57804 -23.90392,-7.91795 -14.99102,-3.9861 -17.47141,-4.25966 -39.33333,-4.33804 -25.38674,-0.091 -33.16126,0.99252 -53.33333,7.43314 -19.79993,6.3218 -47.97183,21.68796 -48.02674,26.19584 -0.0365,2.99734 33.47005,101.53145 34.52111,101.51764 0.46143,-0.006 21.83896,-18.07854 47.50563,-40.16105 z M 379.99818,857.66667 c -10e-4,-0.55 -0.85713,-5.85992 -1.9025,-11.79982 -8.33107,-47.33796 -8.82687,-108.52213 -1.25765,-155.20018 6.628,-40.87373 18.22625,-80.72606 34.29872,-117.8526 l 7.43997,-17.18593 -10.50543,-12.21193 c -21.75628,-25.29037 -47.02624,-46.81952 -77.40462,-65.94611 -15.11187,-9.5146 -84.19147,-44.39034 -118,-59.57383 C 186.8578,406.30544 148.948,387.30073 123,372.94512 c -25.525379,-14.1218 -24.854087,-14.10523 -21.70099,-0.53555 0.71446,3.07474 2.78674,12.49043 4.60507,20.92376 40.41524,187.44408 67.51382,263.92072 120.41722,339.8372 17.53683,25.16539 44.456,53.7993 68.95607,73.34857 18.37442,14.66144 53.30884,36.99226 76.05596,48.61658 7.15495,3.65635 8.6677,4.09822 8.66485,2.53099 z m 924.36842,-3.82774 c 37.2899,-18.68769 77.827,-48.02983 105.0356,-76.02829 73.9619,-76.10904 113.4569,-173.54452 158.5134,-391.05778 2.9524,-14.25259 5.174,-26.10767 4.9371,-26.34462 -0.237,-0.23694 -5.7757,2.65057 -12.3084,6.4167 -22.4079,12.91828 -59.939,31.74703 -115.1491,57.76846 -75.7512,35.70284 -104.1606,51.25016 -132.6754,72.60798 -14.4837,10.84848 -43.1534,38.74733 -52.5929,51.179 l -5.8571,7.7137 6.714,15.61963 c 18.4012,42.80945 33.4785,97.84788 36.9691,134.95296 4.9871,53.014 4.1938,92.15135 -2.7299,134.66666 -1.1346,6.96667 -2.3643,13.71667 -2.7328,15 -0.9637,3.35646 1.0421,2.93519 11.8764,-2.4944 z"
         id="path3" />
      <path
         style="fill:#000000"
         d="m 511.13723,1377.835 c -7.09076,-2.5208 -14.75675,-9.9852 -18.2209,-17.7418 -3.16457,-7.0859 -3.58718,-23.4492 -0.90582,-35.0739 3.83108,-16.6091 16.73644,-38.826 36.44534,-62.7414 18.90459,-22.9395 35.20067,-35.0884 56.87748,-42.4027 11.55584,-3.8993 14.50062,-4.3303 33.5791,-4.9146 l 20.91243,-0.6405 0.79226,-8.8267 c 0.43575,-4.8547 1.07063,-11.0041 1.41085,-13.6653 l 0.61859,-4.8386 -11.34225,-5.4424 c -78.3083,-37.575 -148.4243,-101.9945 -193.97276,-178.2138 -17.18278,-28.75305 -29.25015,-55.18258 -41.39718,-90.66663 L 389.54433,894 375.0764,887.93287 C 342.06821,874.09089 304.47004,851.54359 274.64226,827.70337 203.24111,770.63514 154.51444,690.37829 117.37223,568.66667 98.687659,507.43905 72.803736,401.79345 66.408423,360.65719 c -3.581814,-23.03913 7.683498,-37.61747 28.142611,-36.4191 8.172526,0.4787 10.402386,1.40159 32.115636,13.29192 38.15775,20.89546 62.68866,33.36168 99.33333,50.47964 19.06667,8.90668 47.86667,22.72045 64,30.69726 42.82503,21.17401 85.99494,47.39854 83.8197,50.91815 -0.54256,0.87789 -0.27933,1.07103 0.66461,0.48764 2.37334,-1.4668 28.37397,19.40013 27.8149,22.323 -0.16456,0.86036 0.41536,1.42611 1.28872,1.25721 2.47311,-0.47827 16.50488,12.99593 16.10165,15.46182 -0.19593,1.19823 0.35097,2.04286 1.21535,1.87696 0.86438,-0.16591 4.331,2.76747 7.7036,6.51862 3.37261,3.75114 6.30044,6.58688 6.50631,6.30164 0.20586,-0.28524 4.71966,-7.55201 10.03067,-16.14838 5.311,-8.59637 10.31865,-16.03907 11.12811,-16.53934 0.88772,-0.54864 1.09421,-0.29874 0.52037,0.62976 -1.44328,2.33527 -0.0309,1.83981 2.04275,-0.7166 1.24341,-1.53288 1.29574,-1.93501 0.16326,-1.25465 -3.48576,2.09418 -1.35297,-1.66356 7.87164,-13.86895 13.89265,-18.38182 22.52692,-28.07086 24.13136,-27.07926 0.8162,0.50444 1.01677,0.23615 0.47671,-0.63768 -2.05414,-3.32368 38.67553,-41.81399 66.37172,-62.72254 57.96685,-43.76062 126.56028,-73.14904 200.81524,-86.03803 27.59387,-4.78967 47.37004,-6.38923 79.33333,-6.4167 54.91988,-0.0472 105.38252,8.84851 157.99903,27.85258 17.98267,6.49498 51.18697,21.98398 68.55617,31.97976 27.3682,15.75004 73.8721,49.59271 72.0958,52.46682 -0.4348,0.70348 0.1176,0.9293 1.2295,0.50264 1.3739,-0.52724 9.7025,6.9088 26.0692,23.27554 13.2277,13.22766 24.0503,24.71858 24.0503,25.53538 0,0.8332 -0.7316,1.04556 -1.6667,0.48378 -1.1462,-0.68866 -1.0991,-0.3015 0.1511,1.23996 0.9998,1.2327 2.2856,1.95211 2.8574,1.5987 0.5719,-0.35341 4.2624,3.4032 8.2013,8.34802 12.0683,15.15061 14.6379,18.95228 13.765,20.36479 -0.4618,0.74719 -0.045,1.19365 0.9261,0.99215 0.9766,-0.20263 1.6841,0.67005 1.583,1.95262 -0.1005,1.27544 0.3197,2.00842 0.9339,1.62885 1.1441,-0.70714 11.1607,13.47159 17.9336,25.3855 2.0844,3.66666 3.915,6.84858 4.068,7.07092 0.1529,0.22234 10.0961,-9.42962 22.096,-21.44881 40.3522,-40.41716 68.854,-58.12503 171.1513,-106.33455 35.3838,-16.67529 97.2869,-47.80826 121.9306,-61.32261 19.4179,-10.64863 27.7308,-12.71035 37.821,-9.38026 7.256,2.3947 15.1793,11.82148 16.3179,19.41431 1.5362,10.24352 0.1335,18.78386 -11.9724,72.89478 -45.5273,203.49878 -86.9532,300.7264 -161.0025,377.87678 -37.3016,38.86369 -89.8977,75.02795 -134.6204,92.56277 l -15.303,6 -5.0219,15.33333 c -32.4879,99.19527 -96.7681,184.81357 -180.816,240.83847 -17.6694,11.7782 -41.6085,25.6213 -55,31.8045 l -10.3333,4.7711 0.015,8.9596 c 0.01,4.9278 0.3752,11.1397 0.8159,13.8042 l 0.8012,4.8445 20.8508,0.6013 c 19.2965,0.5566 21.8405,0.9355 34.1285,5.0827 14.5446,4.9088 26.6746,12.3246 40.4648,24.7385 5.2346,4.7123 8.1346,8.2854 7.6819,9.4651 -0.4,1.0424 -0.1758,1.5544 0.4983,1.1378 2.7835,-1.7203 26.1671,29.7343 34.6569,46.6189 9.8269,19.5438 13.2111,41.2411 8.7668,56.2067 -2.1345,7.1875 -8.5701,14.8697 -15.7419,18.7912 -4.0326,2.2049 -22.2637,2.3485 -326.27123,2.5691 -280.74788,0.2038 -322.70839,-0.018 -327.52944,-1.732 z m 642.19607,-27.1683 c 6.5616,-6.5616 0.9046,-29.358 -12.3172,-49.6349 -3.9564,-6.0675 -11.8082,-16.5304 -17.4485,-23.2509 -24.7796,-29.5254 -37.7967,-36.0674 -74.2343,-37.3076 -22.8307,-0.7771 -27.4407,-1.7196 -33.5485,-6.859 -5.6494,-4.7536 -7.601,-10.0922 -8.6424,-23.641 -0.748,-9.7302 -1.2141,-11.3991 -3.0136,-10.7896 -1.1708,0.3966 -10.00489,3.4018 -19.63123,6.6783 -28.95248,9.8544 -59.51339,16.5188 -96.49757,21.0433 -18.12198,2.217 -81.30419,2.2235 -100.66667,0.01 -36.56761,-4.1796 -72.70757,-12.1427 -103.65237,-22.8388 -8.6088,-2.9756 -15.9588,-5.4102 -16.33333,-5.4102 -0.37453,0 -0.68444,2.55 -0.68869,5.6666 -0.0148,10.8246 -2.45237,21.1442 -6.13505,25.9724 -5.85195,7.6723 -11.58453,9.2882 -35.85722,10.1075 -24.32042,0.8208 -33.18513,2.9289 -47.13185,11.208 -18.85734,11.1942 -49.65375,50.1387 -57.35941,72.5356 -5.00571,14.5494 -4.87731,24.6607 0.35753,28.1561 0.80688,0.5388 142.91706,0.9888 315.80039,1 312.56927,0.02 314.34827,0.01 316.99997,-2.6462 z M 900.66667,1197.4439 c 71.30785,-11.1283 134.20163,-36.3882 188.66663,-75.774 97.9569,-70.8364 160.384,-174.13297 178.6875,-295.6699 3.6291,-24.09791 4.9631,-70.324 2.7511,-95.33333 -7.5979,-85.90215 -38.2556,-166.10254 -89.1193,-233.13601 -61.7888,-81.43165 -155.6839,-141.70659 -252.70263,-162.21976 -24.92362,-5.26973 -39.71179,-7.18962 -68.61855,-8.90846 -152.08156,-9.04304 -300.12123,65.09826 -385.22963,192.93089 -59.77234,89.77794 -85.57777,202.54596 -70.32905,307.33334 11.31708,77.7696 43.54534,151.74277 92.56877,212.47203 11.79081,14.6063 39.0186,42.7223 54.65849,56.4416 35.611,31.2379 78.61625,57.4062 124.37374,75.6804 39.63131,15.8275 67.94724,22.519 123.62626,29.2147 2.56667,0.3087 22.06667,0.4083 43.33333,0.2214 31.96539,-0.2809 41.90177,-0.8447 57.33334,-3.2529 z m -84.78989,-54.5584 c -13.69076,-5.5187 -23.13753,-14.3249 -30.02284,-27.9873 -3.53221,-7.0088 -3.81395,-8.6966 -3.83318,-22.9628 -0.0204,-15.1427 0.0627,-15.5667 5.01521,-25.592 8.8954,-18.0068 23.88298,-28.2939 43.62904,-29.9461 28.15255,-2.3556 52.6995,17.5949 57.72149,46.9131 3.84214,22.4303 -8.73688,46.7874 -29.42196,56.9706 -8.07293,3.9743 -10.11225,4.3942 -22.91309,4.7176 -11.18211,0.2826 -15.30182,-0.1489 -20.17467,-2.1131 z m 30.63173,-15.6287 c 19.32264,-5.7382 30.39405,-30.0627 22.85189,-50.2068 -3.6421,-9.7276 -9.03428,-15.7733 -18.21863,-20.4269 -18.78743,-9.5193 -40.35262,-1.936 -49.95293,17.5658 -4.38863,8.915 -4.4228,23.5873 -0.0772,33.1444 8.02855,17.6569 26.18977,25.6274 45.39686,19.9235 z M 812,996.42823 c -85.11002,-8.7239 -186.60153,-57.98115 -269.33333,-130.71656 -28.18398,-24.77854 -59.27915,-58.76546 -74.15675,-81.05311 -7.87461,-11.7967 -8.36999,-26.54774 -1.29432,-38.54171 6.39091,-10.83325 33.38377,-43.16526 50.56229,-60.56346 43.27732,-43.83075 86.11126,-75.70629 137.55544,-102.364 C 741.65352,538.45937 819.97849,525.2116 902,541.46855 1011.66,563.20354 1122.5543,635.60944 1196.8743,734 c 4.4315,5.86667 9.0979,12.68418 10.3699,15.15002 3.0649,5.94139 4.0772,16.84713 2.2064,23.76889 -4.7216,17.469 -50.1579,69.0641 -90.5194,102.7891 -70.6396,59.0247 -149.09924,99.42657 -224.26453,115.48246 -24.59507,5.2537 -60.38686,7.52147 -82.66667,5.23776 z m 66.66667,-29.0267 C 909.6004,962.22014 944.02348,950.44749 982,932.06166 c 49.0021,-23.72369 91.3917,-52.37105 134.6749,-91.01478 23.9899,-21.41845 58.4097,-59.57639 65.54,-72.65801 l 2.3317,-4.2778 -6.1956,-9.05553 C 1167.9422,739.84186 1149.8378,718.9372 1130.0929,699.33333 1089.8614,659.38915 1048.5619,629.37298 1000,604.7828 898.31755,553.29405 808.08689,548.02496 710.42169,587.87265 650.5239,612.31112 596.97479,647.2242 549.10012,693.05146 c -24.49254,23.44509 -59.76679,65.86499 -59.76679,71.874 0,7.3789 38.57378,50.51712 71.19327,79.61759 50.72239,45.2504 116.53772,85.15928 175.96424,106.7006 28.99441,10.51008 41.10231,13.46893 76.17583,18.61534 8.58724,1.26003 53.87274,-0.42614 66,-2.45746 z M 815.33333,948.00794 C 787.4049,945.09376 754.45596,932.67039 729.42408,915.61595 716.59285,906.87391 693.36923,883.64202 684.4908,870.66667 670.79414,850.6497 658.70972,821.91583 654.38874,799.09114 653.38351,793.78117 652.66747,780.01796 652.66718,766 c -4.3e-4,-20.22727 0.48439,-26.16526 3.08417,-37.77419 14.57604,-65.08722 59.64782,-115.08368 122.22766,-135.58264 20.76624,-6.80229 38.69474,-9.11881 64.02099,-8.27207 26.07647,0.87182 43.9895,5.01009 67.31539,15.5512 20.99821,9.48921 35.48206,19.49837 52.16077,36.04601 26.109,25.90383 42.53294,56.17107 50.66274,93.36502 2.5612,11.71746 3.0505,17.80425 3.0011,37.33334 -0.066,26.09143 -1.6867,37.1882 -8.5924,58.83565 -19.46163,61.0067 -71.43528,106.88823 -135.62972,119.73185 -15.30576,3.06228 -40.68313,4.32866 -55.58455,2.77377 z m 17.27303,-28.34127 c 16.09668,-44.16874 29.90749,-86.4643 28.37866,-86.90953 -0.90843,-0.26456 -21.15169,-1.4291 -44.98502,-2.58787 -23.83333,-1.15878 -64.17178,-3.13246 -89.641,-4.38596 -25.46921,-1.2535 -46.70584,-1.88092 -47.19249,-1.39426 -2.33259,2.33258 11.59535,28.87521 22.88434,43.61095 13.45566,17.56393 38.44118,38.14175 58.73003,48.36946 15.74776,7.93852 45.0046,15.6098 64.03199,16.78948 2.39664,0.14859 3.54986,-1.8479 7.79349,-13.49227 z m 28.06031,11.66383 c 12.12509,-1.52968 34.46685,-8.70715 48.04439,-15.43464 32.50221,-16.10442 61.08359,-45.31274 75.91185,-77.57699 4.46033,-9.70504 12.71042,-35.48877 12.71042,-39.72341 0,-1.3169 -1.82157,-3.0044 -4.33333,-4.01438 -2.38333,-0.95835 -14.83333,-7.41806 -27.66667,-14.35491 C 928.37208,760.24735 912.52654,752 911.10272,752 c -0.72709,0 -1.95829,1.95 -2.73601,4.33333 -0.77772,2.38334 -6.83965,19.33334 -13.47095,37.66667 -24.20512,66.91907 -48.22909,135.37899 -48.22909,137.43602 0,1.57855 0.92247,1.9364 3.66666,1.42237 2.01667,-0.37776 6.66667,-1.0653 10.33334,-1.52789 z M 775.66462,810.33333 c -0.34138,-0.91666 -11.26981,-33.16666 -24.2854,-71.66666 -13.01559,-38.5 -25.53228,-75.24558 -27.81486,-81.65683 l -4.15014,-11.65683 -5.87518,5.65683 c -33.9359,32.67466 -52.80057,91.86004 -44.4394,139.4227 1.45988,8.30456 2.86565,15.31052 3.12393,15.5688 0.25828,0.25828 16.96363,1.41931 37.12301,2.58006 20.15938,1.16075 39.35342,2.29996 42.65342,2.53158 16.22516,1.13882 24.28025,0.87344 23.66462,-0.77965 z M 999.60875,761 c -1.33749,-34.9492 -9.33056,-59.77873 -28.65068,-89 -8.03833,-12.15781 -26.83424,-31.88722 -39.26274,-41.21273 l -7.638,-5.73104 -5.7759,5.13855 C 915.10469,633.02099 899.97633,646.43333 884.66286,660 842.6947,697.18087 845.67805,694.21842 848,696.40607 c 1.83208,1.72612 53.20986,30.43765 112.66667,62.96172 13.2,7.22066 27,14.81119 30.66666,16.86783 3.66667,2.05665 7.19224,3.74499 7.8346,3.75187 0.64795,0.007 0.84417,-8.44667 0.44082,-18.98749 z M 812.35111,700.39783 c 37.69818,-32.39482 67.67626,-58.51729 89.53942,-78.02338 l 6.5572,-5.85027 -7.22386,-3.40884 c -8.94441,-4.22074 -28.15606,-9.86181 -40.5572,-11.90871 -13.3158,-2.19787 -40.5215,-1.91227 -55.33334,0.58088 -14.50481,2.44147 -31.43488,7.88452 -44,14.14608 -11.08833,5.52564 -27.96039,16.36141 -27.98278,17.97143 -0.0144,1.03319 29.98617,91.05424 33.46887,100.42831 0.61302,1.65 1.43743,3 1.83202,3 0.3946,0 20.05945,-16.62097 43.69967,-36.9355 z M 380.60942,856.33201 c -7.99796,-39.38471 -10.80833,-97.2054 -6.6912,-137.66534 4.91163,-48.26784 18.78922,-102.02235 37.28865,-144.43671 4.10289,-9.40686 7.4598,-17.64227 7.4598,-18.30091 0,-2.38166 -26.53268,-31.50911 -38.10883,-41.83568 C 343.93926,481.42753 312.40652,463.317 208.63464,415.35096 175.14578,399.87154 156.53621,390.53937 125.88343,373.8536 111.88598,366.23412 99.969204,360 99.401706,360 c -1.18419,0 -0.508704,4.20428 3.963104,24.66667 1.76287,8.06666 6.26301,28.76666 10.00031,46 28.87143,133.13121 57.7242,216.23211 97.03893,279.48868 34.84393,56.06314 73.68387,94.19748 131.49849,129.10956 15.38656,9.29137 37.13947,20.66049 38.23496,19.98344 0.52002,-0.32138 0.73238,-1.63374 0.47192,-2.91634 z m 923.47558,-1.70806 c 79.0151,-39.72804 138.3636,-99.70687 179.1309,-181.03337 30.0445,-59.9355 57.1898,-150.45215 83.6474,-278.92391 3.7,-17.96667 7.0049,-33.11667 7.3441,-33.66667 1.5165,-2.45919 -3.6637,-0.55994 -12.2286,4.48338 -18.0537,10.63078 -68.5133,35.94548 -115.3121,57.85012 -53.4128,25.00038 -81.097,39.104 -103.7693,52.86493 -30.9963,18.8132 -58.1254,41.88982 -80.0581,68.09931 l -9.7332,11.63107 5.3858,11.70226 c 10.6726,23.18952 19.6929,49.35 26.7923,77.70226 11.2334,44.86181 15.0062,74.2577 15.0593,117.33334 0.039,31.59773 -1.4694,51.9203 -5.7506,77.48145 -2.7062,16.15817 -3.0591,19.85188 -1.8966,19.85188 0.3829,0 5.5078,-2.41922 11.3887,-5.37605 z"
         id="path2" />
    </g>
  </g>
</svg>
